<svg xmlns="http://www.w3.org/2000/svg" xmlns:xlink="http://www.w3.org/1999/xlink" width="26" height="25.996" viewBox="0 0 26 25.996">
  <defs>
    <style>
      .cls-1 {
        fill: #fff;
        fill-rule: evenodd;
        filter: url(#filter);
      }
    </style>
    <filter id="filter" x="585.656" y="978.594" width="26" height="25.996" filterUnits="userSpaceOnUse">
      <feFlood result="flood" flood-color="#fff"/>
      <feComposite result="composite" operator="in" in2="SourceGraphic"/>
      <feBlend result="blend" in2="SourceGraphic"/>
    </filter>
  </defs>
  <path id="info" class="cls-1" d="M598.918,985.535a1.5,1.5,0,1,0,1.5-1.488A1.452,1.452,0,0,0,598.918,985.535Zm-3.326,5.164a7.152,7.152,0,0,0,0,.876L596.9,990a1.016,1.016,0,0,1,.742-0.447,0.339,0.339,0,0,1,.195.419l-2.16,7.154a1.442,1.442,0,0,0,1.368,1.845c1.68,0,2.678-1.136,3.659-2.608a7.074,7.074,0,0,0,.023-0.9l-1.3,1.57a1.053,1.053,0,0,1-.767.447,0.336,0.336,0,0,1-.2-0.379l2.175-7.189a1.47,1.47,0,0,0-1.35-1.85C598.184,988.064,596.573,989.227,595.592,990.7Zm3.075-12.116a13,13,0,1,1-13,13A13,13,0,0,1,598.667,978.583Z" transform="translate(-585.656 -978.594)"/>
</svg>
