<svg xmlns="http://www.w3.org/2000/svg" xmlns:xlink="http://www.w3.org/1999/xlink" width="19.187" height="24.317" viewBox="0 0 19.187 24.317">
  <defs>
    <style>
      .cls-1 {
        fill: #fff;
        fill-rule: evenodd;
        filter: url(#filter);
      }
    </style>
    <filter id="filter" x="521.438" y="979.813" width="19.187" height="24.317" filterUnits="userSpaceOnUse">
      <feFlood result="flood" flood-color="#fff"/>
      <feComposite result="composite" operator="in" in2="SourceGraphic"/>
      <feBlend result="blend" in2="SourceGraphic"/>
    </filter>
  </defs>
  <path id="link" class="cls-1" d="M540.361,985.808l-3.5,6.063a2,2,0,0,1-2.732.732l-0.866-.5,1-1.732h0a1,1,0,0,0,1.366-.366l2.5-4.331a1,1,0,0,0-.366-1.366l-3.464-2a1,1,0,0,0-1.366.366l-2.5,4.331a1,1,0,0,0,.366,1.366l-1,1.732-0.866-.5a2,2,0,0,1-.732-2.732l3.5-6.063a2,2,0,0,1,2.732-.732l5.2,3A2,2,0,0,1,540.361,985.808ZM528.531,996.3a1,1,0,0,1-.366-1.366l4-6.928a1,1,0,1,1,1.732,1l-4,6.928A1,1,0,0,1,528.531,996.3Zm-0.732-2.732h0a1,1,0,0,0-1.366.366l-2.5,4.33a1,1,0,0,0,.366,1.366l3.464,2a1,1,0,0,0,1.366-.37l2.5-4.327a1,1,0,0,0-.366-1.366h0l1-1.732,0.866,0.5a2,2,0,0,1,.732,2.732l-3.5,6.063a2,2,0,0,1-2.732.73l-5.2-3a2,2,0,0,1-.732-2.731l3.5-6.062a2,2,0,0,1,2.732-.732l0.866,0.5Z" transform="translate(-521.438 -979.813)"/>
</svg>
