<svg xmlns="http://www.w3.org/2000/svg" xmlns:xlink="http://www.w3.org/1999/xlink" width="29.188" height="29.875" viewBox="0 0 29.188 29.875">
  <defs>
    <style>
      .cls-1 {
        fill: #fff;
        fill-rule: evenodd;
        filter: url(#filter);
      }
    </style>
    <filter id="filter" x="550" y="899" width="29.188" height="29.875" filterUnits="userSpaceOnUse">
      <feFlood result="flood" flood-color="#fffdfd"/>
      <feComposite result="composite" operator="in" in2="SourceGraphic"/>
      <feBlend result="blend" in2="SourceGraphic"/>
    </filter>
  </defs>
  <path id="zoom" class="cls-1" d="M578.592,927.572l-0.709.71a2.008,2.008,0,0,1-2.838,0l-5.675-5.675a1.98,1.98,0,0,1-.283-2.411l-3.1-3.1a10.061,10.061,0,1,1,1.486-1.352l3.035,3.035a1.98,1.98,0,0,1,2.411.283l5.675,5.675A2.007,2.007,0,0,1,578.592,927.572ZM567.523,909A7.523,7.523,0,0,0,560,901.477a7.445,7.445,0,0,0-3.22.749c0.523,0.538,1.313,1.342,1.355,1.342-0.815,0-3.484,2.668-3.484,3.546,0-.042-0.849-0.848-1.4-1.371a7.436,7.436,0,0,0-.77,3.257A7.524,7.524,0,1,0,567.523,909Z" transform="translate(-550 -899)"/>
</svg>
